<svg width="100" height="100" fill="none" xmlns="http://www.w3.org/2000/svg"><path d="M46.609.013a72.43 72.43 0 0 0-4.183.474C20.683 3.817 3.644 20.95.447 42.7c-.34 2.304-.418 3.346-.442 6.037-.008 1.452-.008 2.486.008 2.289l.118-1.381c.3-3.59 1.026-7.103 2.202-10.615 1.87-5.619 4.625-10.535 8.492-15.192 1.098-1.317 4.183-4.411 5.557-5.563 5.2-4.372 11.285-7.576 17.678-9.313 11.262-3.054 23.259-1.799 33.534 3.52A46.85 46.85 0 0 1 83.15 25.527c8.342 10.867 11.412 24.923 8.39 38.402-1.603 7.174-4.973 13.937-9.81 19.69-1.153 1.373-4.247 4.46-5.565 5.556-4.656 3.867-9.573 6.621-15.192 8.492a44.991 44.991 0 0 1-10.615 2.201l-1.381.119c-.198.016.836.016 2.288.008 2.692-.024 3.733-.103 6.038-.442 12.186-1.792 23.235-7.987 31.166-17.48a49.853 49.853 0 0 0 11.05-24.497c.426-2.81.481-3.638.481-7.576 0-3.938-.055-4.767-.481-7.576C96.188 20.682 79.054 3.644 57.303.447 54.777.077 54.036.03 50.437.005c-1.91-.008-3.63-.008-3.828.008Z" fill="#000"/><path d="M42.9 7.55c-14.964.994-28.341 9.857-35.12 23.28-3.765 7.459-5.25 15.737-4.294 24.023 1.578 13.827 9.873 26.044 22.17 32.65 12.177 6.534 26.92 6.715 39.263.48a42.683 42.683 0 0 0 20.552-22.736c1.846-4.822 2.833-10.11 2.801-15.073l-.008-1.476-.11 1.263c-.71 8.341-3.757 15.791-9.092 22.215-.995 1.2-3.117 3.346-4.396 4.459-6.345 5.493-14.064 8.744-22.493 9.478-1.847.158-5.864.118-7.537-.079-4.838-.568-8.895-1.752-13.14-3.835C19.735 76.446 11.56 65.066 9.838 52.09c-.268-2.044-.347-3.606-.3-6.029.055-2.951.3-5.035.892-7.781 1.042-4.767 3.307-9.92 6.148-13.961.766-1.081 1.034-1.436.923-1.192-.157.324-.505 1.445-.694 2.21-.774 3.165-1.002 7.292-.545 9.746.205 1.066.892 3.796 1.31 5.193 1.997 6.637 5.399 12.099 10.095 16.226 1.23 1.081 1.673 1.428 5.745 4.498 3.749 2.818 5.193 3.946 6.37 4.972 4.956 4.31 7.3 8.01 8.318 13.109l.22 1.104.206-.67c.813-2.628 1.255-6.756 1.081-10.039a51.1 51.1 0 0 0-.197-2.525c-.853-6.937-3.788-13.448-8.682-19.201-.442-.521-1.689-1.87-2.762-2.999-5.09-5.335-8.46-9.123-10.22-11.483-.38-.513-.71-.978-.734-1.041-.087-.198-.53.426-.71 1.002-.577 1.823.236 5.216 1.988 8.294.442.782.963 1.547 2.36 3.48.395.545.49.735.473.924-.023.237-.039.245-.434.268-1.618.095-5.082-2.936-7.482-6.534-1.207-1.823-2.446-4.215-3.03-5.872-.6-1.697-.797-3.709-.647-6.479.173-3.07.197-4.222.094-4.72-.11-.512-.386-.891-.718-.978l-.229-.063.892-.986c5.24-5.801 11.902-9.865 19.344-11.799 2.313-.6 4.364-.947 6.945-1.176l1.184-.102h-1.578c-.869 0-2.02.031-2.565.063Z" fill="#000"/><path d="M46.703 20.011c-2.288.6-3.954 2.786-3.962 5.193 0 .229.056.687.127 1.018a5.347 5.347 0 0 0 5.24 4.285c2.415 0 4.554-1.665 5.17-4.024.181-.687.189-1.934.008-2.605-.498-1.918-2.053-3.464-3.915-3.898-.718-.174-1.95-.158-2.668.031ZM77.31 21.803c-.498.457-.56 1.247-.348 4.49.26 3.978.024 6.116-.93 8.358-1.232 2.888-2.795 5.43-4.689 7.615-2.241 2.58-4.798 4.293-5.824 3.899-.071-.032-.127-.142-.127-.268 0-.221.198-.521 1.421-2.163 1.555-2.1 2.683-4.404 3.299-6.755.253-.971.276-1.168.284-2.21.008-1.263-.118-1.776-.56-2.352l-.213-.284-.158.229c-1.95 2.723-5.106 6.321-10.742 12.232-2.69 2.818-3.693 4.002-5.122 5.982-1.35 1.886-2.715 4.262-3.63 6.306-.9 2.005-.86 1.634-.3 3.315 1.129 3.377 1.752 7 1.752 10.18 0 .687.024 1.247.063 1.239.032 0 .348-.403.703-.884 1.191-1.61 2.833-3.29 5.074-5.177 1.263-1.073 2.897-2.336 6.748-5.232 3.867-2.912 4.499-3.425 6.03-4.917 4.033-3.938 6.827-8.57 8.72-14.481.53-1.626 1.414-5.13 1.595-6.314.166-1.026.19-3.938.04-5.327-.38-3.583-1.255-6.605-2.155-7.418-.363-.332-.616-.347-.931-.063Z" fill="#000"/><path d="M67.129 26.782c-.774 1.208-2.928 2.66-5.438 3.686-1.894.765-3.725 1.27-6.519 1.783-3.039.553-5.083 1.129-6.44 1.816l-.624.307-.734-.347c-1.452-.702-3.385-1.247-6.171-1.744-3.568-.64-5.935-1.365-8.31-2.557-1.706-.852-3.19-1.997-3.86-2.967l-.276-.395.04.552c.165 2.1 1.727 4.965 4.024 7.348 1.531 1.594 2.897 2.699 5.383 4.348 1.767 1.176 2.391 1.673 3.433 2.755 2.596 2.69 4.577 6.502 5.722 11 .3 1.184.67 3.11.67 3.489 0 .458.08.173.277-1.026.868-5.145 3.03-9.944 5.887-13.085 1.153-1.27 1.942-1.91 4.136-3.362 3.828-2.54 6.408-5.153 7.924-8.034.686-1.317 1.263-3.164 1.176-3.803-.024-.174-.056-.15-.3.236Z" fill="#000"/></svg>